# xmcd
#
# Track frame offsets:
#	150
#	15440
#	32890
#	49830
#	68568
#	83903
#	98993
#	112462
#	127329
#	139659
#	151359
#	163827
#	177997
#	191482
#	208187
#	221622
#	236835
#	249493
#	270048
#	285886
#
# Disc length: 3988
#
# Revision: 1
# Processed by: cddbd v1.5.1PL0 Copyright (c) Steve Scherf et al.
# Submitted via: EasyCDDAExtractor 5.0.5.1
# Normalized: r0:DSETVAR1
#
DISCID=240f9214
DTITLE=Various Artist - VARIADOS
DYEAR=2002
DGENRE=BOLERO
TTITLE0=LUIS REY - LA GRAN CIUDAD
TTITLE1=HELENO - NO SON PALABRAS
TTITLE2=JORGE CHAR - ERES UN MAL NECESARIO
TTITLE3=MARI TRINI - AYUDALA
TTITLE4=DANNY RIVERA - MI HIJO
TTITLE5=LEO DAN - LLEGASTE CUANDO MENOS LO ESPERABA
TTITLE6=EL GRECO - ALZA TU COPA
TTITLE7=KING CLAVE - LOS HOMBRES NO DEBEN LLORAR
TTITLE8=ORLANDO CONTRERAS - ESTA TU CANCION
TTITLE9=FERNANDO VALADEZ - MALA MUY MALA
TTITLE10=CHARLES AZNAVOUR - Y POR TANTO
TTITLE11=RAFFO - NO ME HABLEN DE ELLA
TTITLE12=FELIPE PIRELA - CRIA CUERVOS
TTITLE13=KING CLAVE - MI CORAZON LLORO
TTITLE14=LEO DAN - LA RADIO
TTITLE15=LEO DAN - MI VIEJO
TTITLE16=PIERO - CUATRO CIRIOS
TTITLE17=JAVIER SOLIS - CUERPO SIN ALMA
TTITLE18=RICARDO CONCCIENTE - UNION ETERNA
TTITLE19=ALBERTO BERTRAN - AUNQUE ME CUESTE LA VIDA
EXTD=
EXTT0=
EXTT1=
EXTT2=
EXTT3=
EXTT4=
EXTT5=
EXTT6=
EXTT7=
EXTT8=
EXTT9=
EXTT10=
EXTT11=
EXTT12=
EXTT13=
EXTT14=
EXTT15=
EXTT16=
EXTT17=
EXTT18=
EXTT19=
PLAYORDER=
